<svg xmlns="http://www.w3.org/2000/svg" data-name="Layer 1" viewBox="0 0 95 118.75" x="0px" y="0px"><path d="m79.454,64.681l-15.146,7.101c-.024-3.019-2.027-6.056-5.836-6.056h-10.294c-4.611-2.04-7.537-3.789-9.684-5.073-2.679-1.601-4.291-2.58-6.473-2.484-2.552.095-5.492,1.709-11.287,5.052h-1.691v-.227c0-.717-.581-1.299-1.299-1.299h-5.239v-.33c0-.717-.581-1.299-1.299-1.299H1.48c-.345,0-.676.137-.919.381-.244.244-.381.575-.38.919l.043,26.54c0,.717.582,1.297,1.299,1.297h9.683c.718,0,1.299-.582,1.299-1.299v-.328h5.239c.718,0,1.299-.582,1.299-1.299v-.229h2.083l18.856,8.191c.043.019.087.035.131.049,1.061.331,2.441.52,3.858.52,1.818,0,3.696-.312,5.034-1.035l35.728-19.224c2.376-1.278,3.058-4.112,1.659-6.891-1.262-2.506-4.047-4.338-6.938-2.979ZM2.781,62.664h6.955c-.029.108-.067.213-.067.33v23.285c0,.116.037.22.066.328H2.82l-.039-23.942Zm13.664,22.316h-3.94v-20.687h3.94v20.687Zm67.058-12.716l-35.73,19.225c-1.639.887-4.929.908-6.822.341l-19.037-8.269c-.163-.071-.34-.107-.518-.107h-2.353v-17.634h2.039c.228,0,.452-.06.649-.174,5.912-3.413,8.507-4.81,10.388-4.88,1.383-.056,2.523.612,5.042,2.118,2.244,1.342,5.317,3.179,10.222,5.332.164.072.342.109.521.109h10.567c2.557,0,3.239,2.209,3.239,3.515,0,.938-.302,1.835-.828,2.461-.578.687-1.389,1.035-2.411,1.035h-20.076c-.718,0-1.299.582-1.299,1.299s.581,1.299,1.299,1.299h20.076c1.799,0,3.32-.678,4.398-1.96.247-.293.464-.611.649-.951l17.038-7.988c1.671-.787,3.029.832,3.515,1.795.127.252,1.188,2.489-.569,3.436ZM81.646.186h-33.256c-7.263,0-13.172,5.908-13.172,13.169v24.136c0,7.261,5.909,13.168,13.172,13.168h1.371c.527,0,.957.431.957.959v6.371c0,1.459.834,2.716,2.181,3.282.446.186.907.276,1.364.276.88,0,1.747-.337,2.467-.988l10.614-9.588c.302-.276.529-.313.712-.313h13.59c7.263,0,13.172-5.907,13.172-13.168V13.354c0-7.261-5.909-13.169-13.172-13.169Zm10.574,37.305c0,5.829-4.743,10.571-10.574,10.571h-13.59c-.912,0-1.74.333-2.458.986l-10.61,9.585c-.24.216-.621.435-1.087.242-.371-.156-.585-.479-.585-.886v-6.371c0-1.961-1.595-3.557-3.555-3.557h-1.371c-5.831,0-10.574-4.742-10.574-10.571V13.354c0-5.829,4.743-10.571,10.574-10.571h33.256c5.831,0,10.574,4.742,10.574,10.571v24.136Zm-9.204-17.082h-11.376c-.242,0-.439-.218-.439-.485v-5.963c0-3.128-2.195-5.799-5.22-6.352-.872-.161-1.768.069-2.453.629-.701.572-1.112,1.427-1.131,2.35-.046,2.646-.109,4.667-.512,6.581-.634,2.959-1.121,4.042-2.967,4.97h-2.531v-.939c0-.717-.581-1.299-1.299-1.299h-8.069c-.718,0-1.299.582-1.299,1.299v16.948c0,.717.581,1.299,1.299,1.299h8.069c.718,0,1.299-.582,1.299-1.299v-.253h2.069c.32.379.581.758.835,1.127,1.511,2.193,2.822,3.598,9.021,3.598.592,0,1.229-.013,1.914-.039h12.79c.718,0,1.299-.582,1.299-1.299v-19.572c0-.717-.581-1.299-1.299-1.299Zm-29.227,16.439h-5.472v-14.351h5.472v14.351Zm16.387,3.134c-6.889.264-7.626-.811-8.745-2.436-.384-.558-.819-1.189-1.466-1.856-.245-.252-.581-.395-.933-.395h-2.641v-10.56h2.824c.189,0,.377-.042.55-.122,3.289-1.536,3.98-3.729,4.661-6.907.45-2.144.519-4.285.567-7.072.004-.214.112-.333.177-.386.067-.056.182-.115.342-.085,1.79.327,3.09,1.924,3.09,3.797v5.963c0,1.7,1.362,3.083,3.037,3.083h10.077v4.036h-5.63c-.718,0-1.299.582-1.299,1.299s.581,1.299,1.299,1.299h5.63v3.704h-5.63c-.718,0-1.299.582-1.299,1.299s.581,1.299,1.299,1.299h5.63v4.04h-11.541Z"/><text x="0" y="110" fill="#000000" font-size="5px" font-weight="bold" font-family="'Helvetica Neue', Helvetica, Arial-Unicode, Arial, Sans-serif">Created by Nur Lita</text><text x="0" y="115" fill="#000000" font-size="5px" font-weight="bold" font-family="'Helvetica Neue', Helvetica, Arial-Unicode, Arial, Sans-serif">from the Noun Project</text></svg>